<?xml version="1.0" standalone="no"?>
<!DOCTYPE svg PUBLIC "-//W3C//DTD SVG 20010904//EN"
 "http://www.w3.org/TR/2001/REC-SVG-20010904/DTD/svg10.dtd">
<svg version="1.0" xmlns="http://www.w3.org/2000/svg"
 width="170.000000pt" height="170.000000pt" viewBox="0 0 170.000000 170.000000"
 preserveAspectRatio="xMidYMid meet">
<metadata>
Created by potrace 1.11, written by Peter Selinger 2001-2013
</metadata>
<g transform="translate(0.000000,170.000000) scale(0.100000,-0.100000)"
fill="#000000" stroke="none">
<path d="M183 1682 c-74 -26 -117 -64 -150 -129 l-28 -58 -3 -624 c-3 -725 -5
-702 82 -787 36 -35 65 -54 96 -62 32 -8 233 -12 680 -14 l635 -3 47 23 c67
34 124 99 143 165 14 48 15 133 13 678 -3 612 -3 625 -24 669 -26 54 -74 104
-128 133 -41 22 -46 22 -676 24 -589 2 -639 1 -687 -15z m927 -240 c0 -4 -5
-13 -12 -20 -9 -9 -2 -9 27 -1 25 7 41 7 47 1 15 -15 2 -29 -40 -42 -51 -17
-63 -30 -26 -30 84 0 205 -102 243 -206 12 -30 21 -59 21 -64 0 -15 88 -23
130 -12 22 5 40 6 40 2 0 -16 -50 -47 -96 -60 -38 -11 -44 -15 -28 -21 10 -4
43 -8 72 -8 36 -1 51 -5 46 -12 -11 -19 -87 -49 -125 -49 -33 0 -37 -3 -48
-42 -23 -76 -74 -160 -138 -225 -64 -65 -99 -84 -65 -35 29 41 42 89 42 151
-1 229 -282 347 -448 188 -78 -74 -104 -198 -62 -295 42 -97 138 -162 240
-162 123 0 -87 -50 -240 -57 -97 -4 -139 -2 -190 11 -104 26 -237 97 -313 166
-85 78 -106 112 -45 71 131 -88 297 -85 433 9 l48 33 -38 13 c-56 19 -72 58
-39 95 15 17 13 18 -25 29 -45 12 -111 64 -111 87 0 8 13 20 30 26 38 14 38
21 0 37 -30 12 -90 72 -90 90 0 4 -3 15 -6 24 -5 12 0 16 17 16 45 0 51 14 19
38 -36 27 -72 95 -68 127 l3 24 75 -30 c143 -57 317 -147 359 -184 23 -21 43
-36 44 -34 2 2 13 29 26 59 35 88 91 181 139 232 40 43 74 65 57 38 -9 -14 -5
-13 40 10 43 22 55 24 55 12z m-83 -509 c94 -44 129 -178 71 -271 -86 -140
-307 -106 -347 53 -41 165 120 292 276 218z"/>
</g>
</svg>
